<?xml version="1.0" encoding="utf-8"?>
<!-- Generator: Adobe Illustrator 16.0.4, SVG Export Plug-In . SVG Version: 6.00 Build 0)  -->
<!DOCTYPE svg PUBLIC "-//W3C//DTD SVG 1.1//EN" "http://www.w3.org/Graphics/SVG/1.1/DTD/svg11.dtd">
<svg version="1.1" id="Layer_1" xmlns="http://www.w3.org/2000/svg" xmlns:xlink="http://www.w3.org/1999/xlink" x="0px" y="0px"
	 width="1572px" height="409px" viewBox="-504.5 27.5 1572 409" enable-background="new -504.5 27.5 1572 409" xml:space="preserve"
	>
<g>
	<g id="patch_2">
		<path fill="#FFFFFF" d="M116.062,388.8h415.653V43.2H116.062V388.8z"/>
	</g>
	<g id="LineCollection_1">
		<g>
			<defs>
				<rect id="SVGID_1_" x="116.062" y="43.2" width="415.653" height="345.6"/>
			</defs>
			<clipPath id="SVGID_2_">
				<use xlink:href="#SVGID_1_"  overflow="visible"/>
			</clipPath>
			<path clip-path="url(#SVGID_2_)" fill="none" stroke="#000080" stroke-linejoin="round" d="M308.522,336.96l-5.416-6.313
				l-20.781-3.693l-8.75-7.273l-12.034-7.072"/>
		</g>
		<g>
			<defs>
				<rect id="SVGID_3_" x="116.062" y="43.2" width="415.653" height="345.6"/>
			</defs>
			<clipPath id="SVGID_4_">
				<use xlink:href="#SVGID_3_"  overflow="visible"/>
			</clipPath>
			<path clip-path="url(#SVGID_4_)" fill="none" stroke="#000080" stroke-linejoin="round" d="M336.054,336.96l8.618-7.78
				l14.766-9.5l6.017-6.312l9.634-10.967l11.149-7.781l8.237-9.499l12.545-16.104l1.413-1.176l17.484-17.279l0.252-17.28
				l1.635-4.847l20.781-11.259"/>
		</g>
		<g>
			<defs>
				<rect id="SVGID_5_" x="116.062" y="43.2" width="415.653" height="345.6"/>
			</defs>
			<clipPath id="SVGID_6_">
				<use xlink:href="#SVGID_5_"  overflow="visible"/>
			</clipPath>
			<path clip-path="url(#SVGID_6_)" fill="none" stroke="#000080" stroke-linejoin="round" d="M240.76,301.225l11.002-16.104
				l-11.002-14.466l-14.958-2.814l3.532-17.279l-0.399-17.28L224.373,216l-0.987-17.28l10.128-17.28"/>
		</g>
		<g>
			<defs>
				<rect id="SVGID_7_" x="116.062" y="43.2" width="415.653" height="345.6"/>
			</defs>
			<clipPath id="SVGID_8_">
				<use xlink:href="#SVGID_7_"  overflow="visible"/>
			</clipPath>
			<path clip-path="url(#SVGID_8_)" fill="none" stroke="#000080" stroke-linejoin="round" d="M427.804,213.186l-17.4-14.466
				l17.4-16.104"/>
		</g>
		<g>
			<defs>
				<rect id="SVGID_9_" x="116.062" y="43.2" width="415.653" height="345.6"/>
			</defs>
			<clipPath id="SVGID_10_">
				<use xlink:href="#SVGID_9_"  overflow="visible"/>
			</clipPath>
			<path clip-path="url(#SVGID_10_)" fill="none" stroke="#000080" stroke-linejoin="round" d="M427.804,180.265l-17.4-16.105
				l-1.971-17.28"/>
		</g>
		<g>
			<defs>
				<rect id="SVGID_11_" x="116.062" y="43.2" width="415.653" height="345.6"/>
			</defs>
			<clipPath id="SVGID_12_">
				<use xlink:href="#SVGID_11_"  overflow="visible"/>
			</clipPath>
			<path clip-path="url(#SVGID_12_)" fill="none" stroke="#000080" stroke-linejoin="round" d="M240.76,160.458l6.418-13.578
				l9.912-17.28l1.067-17.28"/>
		</g>
		<g>
			<defs>
				<rect id="SVGID_13_" x="116.062" y="43.2" width="415.653" height="345.6"/>
			</defs>
			<clipPath id="SVGID_14_">
				<use xlink:href="#SVGID_13_"  overflow="visible"/>
			</clipPath>
			<path clip-path="url(#SVGID_14_)" fill="none" stroke="#000080" stroke-linejoin="round" d="M282.325,132.871l-16.331-3.271
				l16.331-13.578l3.57,13.578L282.325,132.871"/>
		</g>
		<g>
			<defs>
				<rect id="SVGID_15_" x="116.062" y="43.2" width="415.653" height="345.6"/>
			</defs>
			<clipPath id="SVGID_16_">
				<use xlink:href="#SVGID_15_"  overflow="visible"/>
			</clipPath>
			<path clip-path="url(#SVGID_16_)" fill="none" stroke="#000080" stroke-linejoin="round" d="M386.237,123.577l-13.538-11.257
				l-7.245-6.023L348.056,95.04l-3.384-12.434l-10.59-4.846l-8.78-17.28"/>
		</g>
		<g>
			<defs>
				<rect id="SVGID_17_" x="116.062" y="43.2" width="415.653" height="345.6"/>
			</defs>
			<clipPath id="SVGID_18_">
				<use xlink:href="#SVGID_17_"  overflow="visible"/>
			</clipPath>
			<path clip-path="url(#SVGID_18_)" fill="none" stroke="#000080" stroke-linejoin="round" d="M261.541,107.731l20.784,0.887
				l20.781-7.265l6.019-6.313"/>
		</g>
		<g>
			<defs>
				<rect id="SVGID_19_" x="116.062" y="43.2" width="415.653" height="345.6"/>
			</defs>
			<clipPath id="SVGID_20_">
				<use xlink:href="#SVGID_19_"  overflow="visible"/>
			</clipPath>
			<path clip-path="url(#SVGID_20_)" fill="none" stroke="#000080" stroke-linejoin="round" d="M386.237,97.854l-3.385-2.814"/>
		</g>
	</g>
	<g id="LineCollection_2">
		<g>
			<defs>
				<rect id="SVGID_21_" x="116.062" y="43.2" width="415.653" height="345.6"/>
			</defs>
			<clipPath id="SVGID_22_">
				<use xlink:href="#SVGID_21_"  overflow="visible"/>
			</clipPath>
			<path clip-path="url(#SVGID_22_)" fill="none" stroke="#0028FF" stroke-linejoin="round" d="M323.891,318.889l20.781-13.894
				l2.115-2.595l18.667-16.373l1.655-0.907l11.352-17.28l7.776-10.37l10.94-6.909l7.258-17.28l2.584-3.583l7.18-13.697l-7.18-5.969
				l-10.905-11.312l-4.663-17.28l0.277-17.28l-5.491-7.238l-11.72-10.042l-9.063-8.934l-10.036-8.346l-10.746-6.344l-14.7-10.936
				l-6.081-6.775l-6.085,6.775l-14.699,11.216l-3.861,6.064l-16.92,15.496l-5.542,1.784l-12.967,17.28l-2.275,3.125l-8.644,14.155
				l-1.81,17.28L240.804,216l5.933,17.28l4.303,17.28l10.502,15.629l0.905,1.65l4.573,17.28l15.306,11.61l20.781,1.384l4.936,4.286
				L323.891,318.889"/>
		</g>
	</g>
	<g id="LineCollection_3">
		<g>
			<defs>
				<rect id="SVGID_23_" x="116.062" y="43.2" width="415.653" height="345.6"/>
			</defs>
			<clipPath id="SVGID_24_">
				<use xlink:href="#SVGID_23_"  overflow="visible"/>
			</clipPath>
			<path clip-path="url(#SVGID_24_)" fill="none" stroke="#00D4FF" stroke-linejoin="round" d="M323.891,296.176l11.652-11.056
				l9.129-9.922l8.661-7.358l12.121-12.445l3.082-4.834l12.554-17.28l5.147-6.203L394.605,216l-8.368-10.178l-5.795-7.103
				l-8.06-17.28l-6.929-11.845l-4.809-5.435l-15.974-12.745l-5.793-4.535l-14.988-13.607l-15.437,13.607l-5.348,4.522l-11.19,12.758
				l-9.591,12.713l-3.716,4.567l-8.751,17.28l-8.317,9.655L256.766,216l4.775,8.9l6.063,8.38l10.199,17.28l4.521,8.485l6.057,8.794
				l14.725,10.834l8.332,6.446L323.891,296.176"/>
		</g>
	</g>
	<g id="LineCollection_4">
		<g>
			<defs>
				<rect id="SVGID_25_" x="116.062" y="43.2" width="415.653" height="345.6"/>
			</defs>
			<clipPath id="SVGID_26_">
				<use xlink:href="#SVGID_25_"  overflow="visible"/>
			</clipPath>
			<path clip-path="url(#SVGID_26_)" fill="none" stroke="#7DFF7A" stroke-linejoin="round" d="M323.891,271.902l4.012-4.062
				l15.795-17.279l0.975-1.135l14.1-16.146l6.683-8.009l8.143-9.271l-8.143-9.806l-5.289-7.474l-10.88-17.28l-4.613-4.884
				l-14.353-12.396l-6.429-5.042l-5.976,5.042l-14.809,16.257l-0.776,1.023l-12.431,17.28l-7.574,9.084L274.895,216l7.431,9.539
				l5.373,7.741l11.699,17.28l3.709,4.254l15.557,13.025L323.891,271.902"/>
		</g>
	</g>
	<g id="LineCollection_5">
		<g>
			<defs>
				<rect id="SVGID_27_" x="116.062" y="43.2" width="415.653" height="345.6"/>
			</defs>
			<clipPath id="SVGID_28_">
				<use xlink:href="#SVGID_27_"  overflow="visible"/>
			</clipPath>
			<path clip-path="url(#SVGID_28_)" fill="none" stroke="#FFE600" stroke-linejoin="round" d="M323.891,251.072l0.481-0.512
				l15.898-17.28l4.401-4.66L356.247,216l-11.575-14.933l-2.127-2.347l-17.327-17.28l-1.327-1.138l-1.13,1.138l-15.703,17.28
				l-3.951,4.156L291.455,216l11.651,15.439l1.694,1.841l18.477,17.28L323.891,251.072"/>
		</g>
	</g>
	<g id="LineCollection_6">
		<g>
			<defs>
				<rect id="SVGID_29_" x="116.062" y="43.2" width="415.653" height="345.6"/>
			</defs>
			<clipPath id="SVGID_30_">
				<use xlink:href="#SVGID_29_"  overflow="visible"/>
			</clipPath>
			<path clip-path="url(#SVGID_30_)" fill="none" stroke="#FF4700" stroke-linejoin="round" d="M323.891,234.055l0.717-0.774
				L341.949,216l-17.166-17.28l-0.893-0.874l-0.808,0.874L305.655,216l17.398,17.28L323.891,234.055"/>
		</g>
	</g>
	<g id="LineCollection_7">
		<g>
			<defs>
				<rect id="SVGID_31_" x="116.062" y="43.2" width="415.653" height="345.6"/>
			</defs>
			<clipPath id="SVGID_32_">
				<use xlink:href="#SVGID_31_"  overflow="visible"/>
			</clipPath>
			<path clip-path="url(#SVGID_32_)" fill="none" stroke="#800000" stroke-linejoin="round" d="M323.891,222.559l6.655-6.559
				l-6.655-6.578L317.169,216L323.891,222.559"/>
		</g>
	</g>
	<g id="patch_3">
		<path fill="none" stroke="#000000" stroke-linecap="square" d="M116.062,43.2h415.653"/>
	</g>
	<g id="patch_4">
		<path fill="none" stroke="#000000" stroke-linecap="square" d="M531.716,388.8V43.2"/>
	</g>
	<g id="patch_5">
		<path fill="none" stroke="#000000" stroke-linecap="square" d="M116.062,388.8h415.653"/>
	</g>
	<g id="patch_6">
		<path fill="none" stroke="#000000" stroke-linecap="square" d="M116.062,388.8V43.2"/>
	</g>
</g>
<g>
	<g id="patch_7">
		<path fill="#FFFFFF" d="M635.848,388.8H1051.5V43.2H635.848V388.8z"/>
	</g>
	<g id="LineCollection_8">
		<g>
			<defs>
				<rect id="SVGID_33_" x="635.848" y="43.2" width="415.652" height="345.6"/>
			</defs>
			<clipPath id="SVGID_34_">
				<use xlink:href="#SVGID_33_"  overflow="visible"/>
			</clipPath>
			<path clip-path="url(#SVGID_34_)" fill="none" stroke="#000080" stroke-linejoin="round" d="M838.912,354.24l-6.212-17.28
				l-4.601-17.28l-5.21-9.27"/>
		</g>
		<g>
			<defs>
				<rect id="SVGID_35_" x="635.848" y="43.2" width="415.652" height="345.6"/>
			</defs>
			<clipPath id="SVGID_36_">
				<use xlink:href="#SVGID_35_"  overflow="visible"/>
			</clipPath>
			<path clip-path="url(#SVGID_36_)" fill="none" stroke="#000080" stroke-linejoin="round" d="M848.434,354.24l14.703-17.28
				l1.318-3.511"/>
		</g>
		<g>
			<defs>
				<rect id="SVGID_37_" x="635.848" y="43.2" width="415.652" height="345.6"/>
			</defs>
			<clipPath id="SVGID_38_">
				<use xlink:href="#SVGID_37_"  overflow="visible"/>
			</clipPath>
			<path clip-path="url(#SVGID_38_)" fill="none" stroke="#000080" stroke-linejoin="round" d="M813.255,302.4l-11.146-15.217"/>
		</g>
		<g>
			<defs>
				<rect id="SVGID_39_" x="635.848" y="43.2" width="415.652" height="345.6"/>
			</defs>
			<clipPath id="SVGID_40_">
				<use xlink:href="#SVGID_39_"  overflow="visible"/>
			</clipPath>
			<path clip-path="url(#SVGID_40_)" fill="none" stroke="#000080" stroke-linejoin="round" d="M889.999,285.12l11.038-17.28
				l4.983-4.503l15.368-12.776l5.415-8.187l4.761-9.094l16.021-7.698l20.783-2.407L987.147,216"/>
		</g>
		<g>
			<defs>
				<rect id="SVGID_41_" x="635.848" y="43.2" width="415.652" height="345.6"/>
			</defs>
			<clipPath id="SVGID_42_">
				<use xlink:href="#SVGID_41_"  overflow="visible"/>
			</clipPath>
			<path clip-path="url(#SVGID_42_)" fill="none" stroke="#000080" stroke-linejoin="round" d="M775.532,267.84l-10.768-17.279
				l-4.222-1.358l-20.784-11.333"/>
		</g>
		<g>
			<defs>
				<rect id="SVGID_43_" x="635.848" y="43.2" width="415.652" height="345.6"/>
			</defs>
			<clipPath id="SVGID_44_">
				<use xlink:href="#SVGID_43_"  overflow="visible"/>
			</clipPath>
			<path clip-path="url(#SVGID_44_)" fill="none" stroke="#000080" stroke-linejoin="round" d="M710.29,233.28l-12.097-6.515"/>
		</g>
		<g>
			<defs>
				<rect id="SVGID_45_" x="635.848" y="43.2" width="415.652" height="345.6"/>
			</defs>
			<clipPath id="SVGID_46_">
				<use xlink:href="#SVGID_45_"  overflow="visible"/>
			</clipPath>
			<path clip-path="url(#SVGID_46_)" fill="none" stroke="#000080" stroke-linejoin="round" d="M698.193,207.869l20.785-2.169
				l16.018-6.98"/>
		</g>
		<g>
			<defs>
				<rect id="SVGID_47_" x="635.848" y="43.2" width="415.652" height="345.6"/>
			</defs>
			<clipPath id="SVGID_48_">
				<use xlink:href="#SVGID_47_"  overflow="visible"/>
			</clipPath>
			<path clip-path="url(#SVGID_48_)" fill="none" stroke="#000080" stroke-linejoin="round" d="M968.369,208.825L949,198.72"/>
		</g>
		<g>
			<defs>
				<rect id="SVGID_49_" x="635.848" y="43.2" width="415.652" height="345.6"/>
			</defs>
			<clipPath id="SVGID_50_">
				<use xlink:href="#SVGID_49_"  overflow="visible"/>
			</clipPath>
			<path clip-path="url(#SVGID_50_)" fill="none" stroke="#000080" stroke-linejoin="round" d="M739.759,192.569l18.302-11.129
				l2.482-2.064l20.781-13.858l1.887-1.358l9.264-17.28l9.634-10.967l5.414-6.313l15.367-12.777l2.817-4.503l3.538-17.28"/>
		</g>
		<g>
			<defs>
				<rect id="SVGID_51_" x="635.848" y="43.2" width="415.652" height="345.6"/>
			</defs>
			<clipPath id="SVGID_52_">
				<use xlink:href="#SVGID_51_"  overflow="visible"/>
			</clipPath>
			<path clip-path="url(#SVGID_52_)" fill="none" stroke="#000080" stroke-linejoin="round" d="M926.804,190.103l-12.097-8.663
				l-6.203-17.28"/>
		</g>
		<g>
			<defs>
				<rect id="SVGID_53_" x="635.848" y="43.2" width="415.652" height="345.6"/>
			</defs>
			<clipPath id="SVGID_54_">
				<use xlink:href="#SVGID_53_"  overflow="visible"/>
			</clipPath>
			<path clip-path="url(#SVGID_54_)" fill="none" stroke="#000080" stroke-linejoin="round" d="M906.021,160.458l-16.329-13.578"/>
		</g>
		<g>
			<defs>
				<rect id="SVGID_55_" x="635.848" y="43.2" width="415.652" height="345.6"/>
			</defs>
			<clipPath id="SVGID_56_">
				<use xlink:href="#SVGID_55_"  overflow="visible"/>
			</clipPath>
			<path clip-path="url(#SVGID_56_)" fill="none" stroke="#000080" stroke-linejoin="round" d="M885.237,143.178l-4.286-13.578"/>
		</g>
		<g>
			<defs>
				<rect id="SVGID_57_" x="635.848" y="43.2" width="415.652" height="345.6"/>
			</defs>
			<clipPath id="SVGID_58_">
				<use xlink:href="#SVGID_57_"  overflow="visible"/>
			</clipPath>
			<path clip-path="url(#SVGID_58_)" fill="none" stroke="#000080" stroke-linejoin="round" d="M864.455,105.047L860.72,95.04
				l-3.192-17.28l-3.856-17.28"/>
		</g>
	</g>
	<g id="LineCollection_9">
		<g>
			<defs>
				<rect id="SVGID_59_" x="635.848" y="43.2" width="415.652" height="345.6"/>
			</defs>
			<clipPath id="SVGID_60_">
				<use xlink:href="#SVGID_59_"  overflow="visible"/>
			</clipPath>
			<path clip-path="url(#SVGID_60_)" fill="none" stroke="#0028FF" stroke-linejoin="round" d="M867.458,285.12l14.514-17.28
				l3.266-4.543l13.27-12.736l7.514-5.559l8.715-11.722l12.068-6.487l20.782-8.908l9.515-1.885l-9.515-3.611l-20.782-8.752
				l-8.898-4.917l-11.885-8.693l-12.278-8.587l-8.505-12.737l-2.771-4.543l-14.004-17.28l-3.53-17.28"/>
		</g>
		<g>
			<defs>
				<rect id="SVGID_61_" x="635.848" y="43.2" width="415.652" height="345.6"/>
			</defs>
			<clipPath id="SVGID_62_">
				<use xlink:href="#SVGID_61_"  overflow="visible"/>
			</clipPath>
			<path clip-path="url(#SVGID_62_)" fill="none" stroke="#0028FF" stroke-linejoin="round" d="M864.455,128.986l-11.067-16.666
				l-6.624-17.28l-3.092-5.575"/>
		</g>
		<g>
			<defs>
				<rect id="SVGID_63_" x="635.848" y="43.2" width="415.652" height="345.6"/>
			</defs>
			<clipPath id="SVGID_64_">
				<use xlink:href="#SVGID_63_"  overflow="visible"/>
			</clipPath>
			<path clip-path="url(#SVGID_64_)" fill="none" stroke="#0028FF" stroke-linejoin="round" d="M841.056,95.04l-4.824,17.28
				l-9.963,17.28l-3.379,7.545l-7.63,9.735l-8.877,17.28l-4.274,5.677l-16.951,11.603l-3.833,2.895l-15.367,14.385l-5.414,2.12
				l-20.784,6.17l-20.78,5.67L702.13,216l16.849,7.546l20.78,0.854l20.784,7.602l3.099,1.278l17.683,8.196l10.723,9.084l10.062,12
				l4.646,5.279l10.668,17.28l5.467,6.603l6.503,10.678l8.393,17.279l4.724,17.28l1.163,2.497l2.067-2.497l7.575-17.28l7.026-17.279
				l4.114-12.262"/>
		</g>
	</g>
	<g id="LineCollection_10">
		<g>
			<defs>
				<rect id="SVGID_65_" x="635.848" y="43.2" width="415.652" height="345.6"/>
			</defs>
			<clipPath id="SVGID_66_">
				<use xlink:href="#SVGID_65_"  overflow="visible"/>
			</clipPath>
			<path clip-path="url(#SVGID_66_)" fill="none" stroke="#00D4FF" stroke-linejoin="round" d="M843.672,307.729l2.481-5.328
				l7.396-17.28l8.552-17.28l2.354-3.949l10.877-13.33l9.905-8.895l10.89-8.386l9.894-5.737l20.783-9.982l3.801-1.561l-3.801-1.788
				l-20.783-10.713l-8.487-4.779l-12.296-8.438l-9.573-8.842l-11.209-16.901l-0.202-0.379l-9.563-17.28l-6.898-17.28l-4.119-7.778
				l-3.365,7.778l-8.275,17.28l-8.233,17.28l-0.908,1.501l-12.318,15.779l-8.463,8.414l-11.321,8.866l-9.463,5.148l-20.781,7.865
				L747.612,216l12.931,4.504l20.781,8.326l8.948,4.45l11.836,10.14l6.931,7.141l13.734,17.279l0.116,0.186l9.477,17.095
				l9.183,17.28L843.672,307.729"/>
		</g>
	</g>
	<g id="LineCollection_11">
		<g>
			<defs>
				<rect id="SVGID_67_" x="635.848" y="43.2" width="415.652" height="345.6"/>
			</defs>
			<clipPath id="SVGID_68_">
				<use xlink:href="#SVGID_67_"  overflow="visible"/>
			</clipPath>
			<path clip-path="url(#SVGID_68_)" fill="none" stroke="#7DFF7A" stroke-linejoin="round" d="M843.672,279.872l5.834-12.032
				l10.111-17.279l4.838-6.844l11.457-10.437l9.325-6.009L905.805,216l-20.567-11.327l-9.406-5.953l-11.376-10.806l-4.305-6.474
				l-9.267-17.28l-7.212-14.094l-6.963,14.094l-10.24,17.28l-3.579,5.34l-11.559,11.939l-9.223,5.982l-20.784,10.668l-1.719,0.63
				l1.719,0.667l20.784,10.212l9.817,6.401l10.964,11.125l4.321,6.155l9.853,17.279L843.672,279.872"/>
		</g>
	</g>
	<g id="LineCollection_12">
		<g>
			<defs>
				<rect id="SVGID_69_" x="635.848" y="43.2" width="415.652" height="345.6"/>
			</defs>
			<clipPath id="SVGID_70_">
				<use xlink:href="#SVGID_69_"  overflow="visible"/>
			</clipPath>
			<path clip-path="url(#SVGID_70_)" fill="none" stroke="#FFE600" stroke-linejoin="round" d="M843.672,255.514l2.831-4.953
				l12.107-17.28l5.845-5.513L882.51,216l-18.055-11.627l-6.001-5.653l-11.469-17.28l-3.313-6.104l-3.458,6.104l-11.671,17.28
				l-5.653,5.411L804.562,216l18.328,11.82l5.711,5.46l12.149,17.28L843.672,255.514"/>
		</g>
	</g>
	<g id="LineCollection_13">
		<g>
			<defs>
				<rect id="SVGID_71_" x="635.848" y="43.2" width="415.652" height="345.6"/>
			</defs>
			<clipPath id="SVGID_72_">
				<use xlink:href="#SVGID_71_"  overflow="visible"/>
			</clipPath>
			<path clip-path="url(#SVGID_72_)" fill="none" stroke="#FF4700" stroke-linejoin="round" d="M843.672,235.534l1.573-2.254
				L863.6,216l-18.367-17.28l-1.561-2.353l-1.596,2.353L823.956,216l18.13,17.28L843.672,235.534"/>
		</g>
	</g>
	<g id="LineCollection_14">
		<g>
			<defs>
				<rect id="SVGID_73_" x="635.848" y="43.2" width="415.652" height="345.6"/>
			</defs>
			<clipPath id="SVGID_74_">
				<use xlink:href="#SVGID_73_"  overflow="visible"/>
			</clipPath>
			<path clip-path="url(#SVGID_74_)" fill="none" stroke="#800000" stroke-linejoin="round" d="M843.672,222.566l6.996-6.566
				l-6.996-6.568L836.753,216L843.672,222.566"/>
		</g>
	</g>
	<g id="patch_8">
		<path fill="none" stroke="#000000" stroke-linecap="square" d="M635.848,43.2H1051.5"/>
	</g>
	<g id="patch_9">
		<path fill="none" stroke="#000000" stroke-linecap="square" d="M1051.5,388.8V43.2"/>
	</g>
	<g id="patch_10">
		<path fill="none" stroke="#000000" stroke-linecap="square" d="M635.848,388.8H1051.5"/>
	</g>
	<g id="patch_11">
		<path fill="none" stroke="#000000" stroke-linecap="square" d="M635.848,388.8V43.2"/>
	</g>
</g>
<text transform="matrix(1 0 0 1 323.8887 415.5)" font-family="'TimesNewRomanPSMT'" font-size="36">s</text>
<text transform="matrix(0.583 0 0 0.583 337.8984 427.4883)" font-family="'TimesNewRomanPSMT'" font-size="36">148</text>
<text transform="matrix(1 0 0 1 843.6738 415.5)" font-family="'TimesNewRomanPSMT'" font-size="36">s</text>
<text transform="matrix(0.583 0 0 0.583 857.6836 427.4883)" font-family="'TimesNewRomanPSMT'" font-size="36">148</text>
<text transform="matrix(1 0 0 1 60.6738 216)" font-family="'TimesNewRomanPSMT'" font-size="36">s</text>
<text transform="matrix(0.583 0 0 0.583 74.6836 227.9883)" font-family="'TimesNewRomanPSMT'" font-size="36">101</text>
<text transform="matrix(1 0 0 1 580.6738 216)" font-family="'TimesNewRomanPSMT'" font-size="36">s</text>
<text transform="matrix(0.583 0 0 0.583 594.6836 227.9883)" font-family="'TimesNewRomanPSMT'" font-size="36">109</text>
<image overflow="visible" width="18" height="18" xlink:href="dependency_148.png"  transform="matrix(6 0 0 6 -180.5 56.8984)">
</image>
<image overflow="visible" width="18" height="18" xlink:href="dependency_109.png"  transform="matrix(6 0 0 6 -180.5 292.5)">
</image>
<image overflow="visible" width="18" height="18" xlink:href="dependency_101.png"  transform="matrix(6 0 0 6 -180.5 174.6992)">
</image>
</svg>
