<?xml version="1.0" encoding="utf-8"?>
<!-- Generator: Adobe Illustrator 16.0.4, SVG Export Plug-In . SVG Version: 6.00 Build 0)  -->
<!DOCTYPE svg PUBLIC "-//W3C//DTD SVG 1.1//EN" "http://www.w3.org/Graphics/SVG/1.1/DTD/svg11.dtd">
<svg version="1.1" id="Layer_1" xmlns="http://www.w3.org/2000/svg" xmlns:xlink="http://www.w3.org/1999/xlink" x="0px" y="0px"
	 width="398.667px" height="325.333px" viewBox="82.5 17.833 398.667 325.333" enable-background="new 82.5 17.833 398.667 325.333"
	 xml:space="preserve">
<g id="axes_1">
	<g id="patch_2">
		<path fill="#FFFFFF" d="M134.495,302.658h334.062V44.03H134.495V302.658z"/>
	</g>
	<g id="line2d_1">
		<g>
			<defs>
				<rect id="SVGID_1_" x="134.495" y="44.03" width="334.062" height="258.628"/>
			</defs>
			<clipPath id="SVGID_2_">
				<use xlink:href="#SVGID_1_"  overflow="visible"/>
			</clipPath>
			<path clip-path="url(#SVGID_2_)" fill="none" stroke="#0000FF" stroke-linecap="square" stroke-linejoin="round" d="
				M134.495,55.611l83.515,203.618l83.516,18.598l83.516,0.535l83.515-1.648"/>
		</g>
		<g>
			<defs>
				<rect id="SVGID_3_" x="134.495" y="44.03" width="334.062" height="258.628"/>
			</defs>
			<clipPath id="SVGID_4_">
				<use xlink:href="#SVGID_3_"  overflow="visible"/>
			</clipPath>
			<g clip-path="url(#SVGID_4_)">
				<g>
					<path id="mf1e9a9e4ae" fill="#0000FF" stroke="#000000" stroke-width="0.5" stroke-linejoin="round" d="M134.495,57.856
						c0.595,0,1.166-0.236,1.587-0.657c0.421-0.421,0.658-0.992,0.658-1.588c0-0.595-0.237-1.166-0.658-1.587
						c-0.421-0.42-0.993-0.658-1.587-0.658c-0.596,0-1.166,0.237-1.587,0.658c-0.421,0.421-0.658,0.992-0.658,1.587
						c0,0.596,0.236,1.167,0.658,1.588S133.899,57.856,134.495,57.856z"/>
				</g>
				<g>
					<path id="mf1e9a9e4ae_1_" fill="#0000FF" stroke="#000000" stroke-width="0.5" stroke-linejoin="round" d="M218.01,261.475
						c0.596,0,1.167-0.236,1.588-0.656c0.421-0.422,0.658-0.994,0.658-1.59c0-0.594-0.237-1.164-0.658-1.586
						c-0.421-0.422-0.992-0.658-1.588-0.658c-0.595,0-1.167,0.236-1.587,0.658s-0.657,0.992-0.657,1.586
						c0,0.596,0.236,1.168,0.657,1.59C216.844,261.238,217.415,261.475,218.01,261.475z"/>
				</g>
				<g>
					<path id="mf1e9a9e4ae_2_" fill="#0000FF" stroke="#000000" stroke-width="0.5" stroke-linejoin="round" d="M301.526,280.072
						c0.596,0,1.166-0.236,1.587-0.658c0.421-0.42,0.658-0.992,0.658-1.588s-0.237-1.166-0.658-1.586
						c-0.421-0.422-0.991-0.658-1.587-0.658s-1.167,0.236-1.588,0.658c-0.421,0.42-0.657,0.99-0.657,1.586s0.236,1.168,0.657,1.588
						C300.359,279.836,300.931,280.072,301.526,280.072z"/>
				</g>
				<g>
					<path id="mf1e9a9e4ae_3_" fill="#0000FF" stroke="#000000" stroke-width="0.5" stroke-linejoin="round" d="M385.042,280.605
						c0.595,0,1.166-0.236,1.587-0.658c0.421-0.42,0.657-0.99,0.657-1.586s-0.236-1.168-0.657-1.588
						c-0.421-0.422-0.992-0.658-1.587-0.658c-0.596,0-1.167,0.236-1.588,0.658c-0.421,0.42-0.658,0.992-0.658,1.588
						s0.237,1.166,0.658,1.586C383.875,280.369,384.446,280.605,385.042,280.605z"/>
				</g>
				<g>
					<path id="mf1e9a9e4ae_4_" fill="#0000FF" stroke="#000000" stroke-width="0.5" stroke-linejoin="round" d="M468.557,278.957
						c0.595,0,1.167-0.236,1.588-0.658s0.658-0.992,0.658-1.586c0-0.596-0.237-1.168-0.658-1.588s-0.993-0.658-1.588-0.658
						s-1.166,0.238-1.587,0.658s-0.657,0.992-0.657,1.588c0,0.594,0.236,1.164,0.657,1.586S467.962,278.957,468.557,278.957z"/>
				</g>
			</g>
		</g>
	</g>
	<g id="patch_3">
		<path fill="none" stroke="#000000" stroke-linecap="square" d="M134.495,44.03h334.062"/>
	</g>
	<g id="patch_4">
		<path fill="none" stroke="#000000" stroke-linecap="square" d="M468.557,302.658V44.03"/>
	</g>
	<g id="patch_5">
		<path fill="none" stroke="#000000" stroke-linecap="square" d="M134.495,302.658h334.062"/>
	</g>
	<g id="patch_6">
		<path fill="none" stroke="#000000" stroke-linecap="square" d="M134.495,302.658V44.03"/>
	</g>
	<g id="matplotlib.axis_1">
		<g id="xtick_1">
			<g id="line2d_2">
				<g>
					<g>
						<path id="m93b0483c22" stroke="#000000" stroke-width="0.5" stroke-linejoin="round" d="M134.495,302.658v-2.994"/>
					</g>
				</g>
			</g>
			<g id="line2d_3">
				<g>
					<g>
						<path id="m741efc42ff" stroke="#000000" stroke-width="0.5" stroke-linejoin="round" d="M134.495,44.03v2.993"/>
					</g>
				</g>
			</g>
			<g id="text_1">
				<g transform="translate(63.515625 401.918125)scale(0.12 -0.12)">
					<g>
						<path id="BitstreamVeraSans-Roman-31" d="M547.868,751.564h12.056v41.634l-13.118-2.637v6.722l13.049,2.637h7.377v-48.356
							h12.057v-6.201h-31.421V751.564z"/>
					</g>
					<g>
						<path id="BitstreamVeraSans-Roman-2e" d="M594.198,754.64h7.715v-9.277h-7.715V754.64z"/>
					</g>
					<g>
						<path id="BitstreamVeraSans-Roman-30" d="M633.769,795.07c-3.796,0-6.653-1.888-8.569-5.631
							c-1.908-3.727-2.869-9.343-2.869-16.862c0-7.471,0.96-13.086,2.869-16.829c1.917-3.727,4.773-5.615,8.569-5.615
							c3.829,0,6.698,1.888,8.606,5.615c1.921,3.743,2.873,9.359,2.873,16.829c0,7.52-0.952,13.135-2.873,16.862
							C640.466,793.182,637.598,795.07,633.769,795.07 M633.769,800.913c6.12,0,10.791-2.441,14.022-7.259
							c3.227-4.85,4.838-11.865,4.838-21.077c0-9.18-1.611-16.195-4.838-21.029c-3.231-4.834-7.902-7.259-14.022-7.259
							c-6.108,0-10.783,2.425-14.01,7.259s-4.842,11.849-4.842,21.029c0,9.212,1.615,16.227,4.842,21.077
							C622.986,798.471,627.661,800.913,633.769,800.913"/>
					</g>
				</g>
			</g>
		</g>
		<g id="xtick_2">
			<g id="line2d_4">
				<g>
					<g>
						<path id="m93b0483c22_1_" stroke="#000000" stroke-width="0.5" stroke-linejoin="round" d="M176.252,302.658v-2.994"/>
					</g>
				</g>
			</g>
			<g id="line2d_5">
				<g>
					<g>
						<path id="m741efc42ff_1_" stroke="#000000" stroke-width="0.5" stroke-linejoin="round" d="M176.252,44.03v2.993"/>
					</g>
				</g>
			</g>
			<g id="text_2">
				<g transform="translate(119.44125 401.918125)scale(0.12 -0.12)">
					<g>
						<path id="BitstreamVeraSans-Roman-31_1_" d="M430.588,751.564h12.056v41.634l-13.123-2.637v6.722l13.049,2.637h7.381v-48.356
							h12.052v-6.201h-31.417V751.564z"/>
					</g>
					<g>
						<path id="BitstreamVeraSans-Roman-2e_1_" d="M476.91,754.64h7.719v-9.277h-7.719V754.64z"/>
					</g>
					<g>
						<path id="BitstreamVeraSans-Roman-35" d="M500.783,799.92h28.975v-6.218h-22.217V780.34c1.066,0.358,2.136,0.635,3.202,0.814
							c1.074,0.179,2.152,0.277,3.231,0.277c6.087,0,10.905-1.677,14.461-5.029c3.564-3.32,5.347-7.845,5.347-13.542
							c0-5.859-1.831-10.433-5.485-13.688c-3.658-3.255-8.809-4.883-15.462-4.883c-2.287,0-4.622,0.212-6.999,0.586
							c-2.372,0.391-4.822,0.977-7.357,1.774v7.406c2.189-1.188,4.456-2.083,6.795-2.669c2.336-0.57,4.805-0.863,7.41-0.863
							c4.219,0,7.552,1.09,10.01,3.304c2.466,2.23,3.695,5.241,3.695,9.033s-1.229,6.82-3.695,9.017
							c-2.458,2.23-5.79,3.353-10.01,3.353c-1.969,0-3.943-0.228-5.904-0.667c-1.957-0.456-3.955-1.123-5.998-2.051V799.92z"/>
					</g>
				</g>
			</g>
		</g>
		<g id="xtick_3">
			<g id="line2d_6">
				<g>
					<g>
						<path id="m93b0483c22_2_" stroke="#000000" stroke-width="0.5" stroke-linejoin="round" d="M218.01,302.658v-2.994"/>
					</g>
				</g>
			</g>
			<g id="line2d_7">
				<g>
					<g>
						<path id="m741efc42ff_2_" stroke="#000000" stroke-width="0.5" stroke-linejoin="round" d="M218.01,44.03v2.993"/>
					</g>
				</g>
			</g>
			<g id="text_3">
				<g transform="translate(174.89625 401.918125)scale(0.12 -0.12)">
					<g>
						<path id="BitstreamVeraSans-Roman-32" d="M319.366,751.564h25.761v-6.201h-34.635v6.201c2.8,2.914,6.612,6.787,11.446,11.67
							c4.842,4.883,7.882,8.057,9.119,9.473c2.364,2.653,4.012,4.883,4.948,6.738c0.944,1.839,1.416,3.63,1.416,5.42
							c0,2.897-1.017,5.257-3.052,7.08c-2.034,1.839-4.683,2.751-7.951,2.751c-2.319,0-4.761-0.407-7.332-1.204
							c-2.563-0.798-5.306-2.035-8.232-3.662v7.454c2.97,1.188,5.745,2.1,8.325,2.702c2.588,0.618,4.952,0.928,7.096,0.928
							c5.652,0,10.156-1.416,13.517-4.248c3.361-2.832,5.042-6.608,5.042-11.328c0-2.246-0.423-4.378-1.266-6.38
							c-0.834-2.002-2.36-4.362-4.582-7.096c-0.606-0.716-2.543-2.751-5.811-6.136C329.917,762.355,325.315,757.635,319.366,751.564
							"/>
					</g>
					<g>
						<path id="BitstreamVeraSans-Roman-2e_2_" d="M360.614,754.64h7.719v-9.277h-7.719V754.64z"/>
					</g>
					<g>
						<path id="BitstreamVeraSans-Roman-30_1_" d="M400.189,795.07c-3.796,0-6.653-1.888-8.573-5.631
							c-1.908-3.727-2.86-9.343-2.86-16.862c0-7.471,0.952-13.086,2.86-16.829c1.921-3.727,4.777-5.615,8.573-5.615
							c3.825,0,6.698,1.888,8.606,5.615c1.921,3.743,2.877,9.359,2.877,16.829c0,7.52-0.956,13.135-2.877,16.862
							C406.887,793.182,404.014,795.07,400.189,795.07 M400.189,800.913c6.124,0,10.791-2.441,14.022-7.259
							c3.223-4.85,4.838-11.865,4.838-21.077c0-9.18-1.615-16.195-4.838-21.029c-3.231-4.834-7.898-7.259-14.022-7.259
							c-6.112,0-10.779,2.425-14.005,7.259c-3.231,4.834-4.842,11.849-4.842,21.029c0,9.212,1.611,16.227,4.842,21.077
							C389.41,798.471,394.078,800.913,400.189,800.913"/>
					</g>
				</g>
			</g>
		</g>
		<g id="xtick_4">
			<g id="line2d_8">
				<g>
					<g>
						<path id="m93b0483c22_3_" stroke="#000000" stroke-width="0.5" stroke-linejoin="round" d="M259.769,302.658v-2.994"/>
					</g>
				</g>
			</g>
			<g id="line2d_9">
				<g>
					<g>
						<path id="m741efc42ff_3_" stroke="#000000" stroke-width="0.5" stroke-linejoin="round" d="M259.769,44.03v2.993"/>
					</g>
				</g>
			</g>
			<g id="text_4">
				<g transform="translate(230.821875 401.918125)scale(0.12 -0.12)">
					<g>
						<path id="BitstreamVeraSans-Roman-32_1_" d="M202.087,751.564h25.757v-6.201h-34.635v6.201c2.8,2.914,6.616,6.787,11.45,11.67
							c4.842,4.883,7.878,8.057,9.115,9.473c2.368,2.653,4.012,4.883,4.948,6.738c0.944,1.839,1.416,3.63,1.416,5.42
							c0,2.897-1.017,5.257-3.052,7.08c-2.034,1.839-4.679,2.751-7.951,2.751c-2.319,0-4.761-0.407-7.332-1.204
							c-2.563-0.798-5.306-2.035-8.236-3.662v7.454c2.979,1.188,5.753,2.1,8.325,2.702c2.596,0.618,4.956,0.928,7.104,0.928
							c5.648,0,10.156-1.416,13.517-4.248c3.361-2.832,5.038-6.608,5.038-11.328c0-2.246-0.423-4.378-1.261-6.38
							s-2.36-4.362-4.59-7.096c-0.602-0.716-2.539-2.751-5.802-6.136C212.634,762.355,208.036,757.635,202.087,751.564"/>
					</g>
					<g>
						<path id="BitstreamVeraSans-Roman-2e_3_" d="M243.338,754.64h7.715v-9.277h-7.715V754.64z"/>
					</g>
					<g>
						<path id="BitstreamVeraSans-Roman-35_1_" d="M267.207,799.92h28.971v-6.218h-22.217V780.34
							c1.066,0.358,2.14,0.635,3.206,0.814c1.074,0.179,2.148,0.277,3.223,0.277c6.095,0,10.913-1.677,14.469-5.029
							c3.556-3.32,5.338-7.845,5.338-13.542c0-5.859-1.823-10.433-5.485-13.688c-3.646-3.255-8.805-4.883-15.454-4.883
							c-2.295,0-4.623,0.212-6.999,0.586c-2.376,0.391-4.826,0.977-7.365,1.774v7.406c2.197-1.188,4.46-2.083,6.795-2.669
							c2.344-0.57,4.81-0.863,7.422-0.863c4.215,0,7.552,1.09,10.001,3.304c2.466,2.23,3.695,5.241,3.695,9.033
							s-1.229,6.82-3.695,9.017c-2.449,2.23-5.786,3.353-10.001,3.353c-1.978,0-3.947-0.228-5.908-0.667
							c-1.961-0.456-3.955-1.123-5.998-2.051V799.92z"/>
					</g>
				</g>
			</g>
		</g>
		<g id="xtick_5">
			<g id="line2d_10">
				<g>
					<g>
						<path id="m93b0483c22_4_" stroke="#000000" stroke-width="0.5" stroke-linejoin="round" d="M301.526,302.658v-2.994"/>
					</g>
				</g>
			</g>
			<g id="line2d_11">
				<g>
					<g>
						<path id="m741efc42ff_4_" stroke="#000000" stroke-width="0.5" stroke-linejoin="round" d="M301.526,44.03v2.993"/>
					</g>
				</g>
			</g>
			<g id="text_5">
				<g transform="translate(286.5140625 401.918125)scale(0.12 -0.12)">
					<g>
						<path id="BitstreamVeraSans-Roman-33" d="M101.299,774.773c3.524-0.749,6.291-2.327,8.26-4.72
							c1.994-2.376,2.995-5.339,2.995-8.838c0-5.387-1.855-9.538-5.558-12.5c-3.703-2.946-8.96-4.427-15.788-4.427
							c-2.287,0-4.639,0.228-7.064,0.684c-2.425,0.456-4.923,1.139-7.503,2.051v7.096c2.043-1.172,4.272-2.083,6.714-2.686
							c2.433-0.618,4.98-0.911,7.642-0.911c4.622,0,8.146,0.911,10.571,2.734c2.425,1.823,3.638,4.476,3.638,7.959
							c0,3.223-1.131,5.729-3.385,7.552c-2.254,1.807-5.387,2.718-9.391,2.718h-6.364v6.071h6.657c3.621,0,6.396,0.716,8.317,2.181
							c1.929,1.432,2.889,3.532,2.889,6.25c0,2.8-0.985,4.948-2.979,6.445c-1.986,1.514-4.826,2.262-8.521,2.262
							c-2.035,0-4.199-0.228-6.519-0.667c-2.311-0.439-4.858-1.107-7.634-2.035v6.576c2.808,0.781,5.428,1.367,7.886,1.758
							c2.441,0.374,4.744,0.586,6.917,0.586c5.599,0,10.034-1.286,13.29-3.841c3.271-2.539,4.899-5.973,4.899-10.303
							c0-3.027-0.863-5.583-2.596-7.666C106.947,777.02,104.481,775.587,101.299,774.773"/>
					</g>
					<g>
						<path id="BitstreamVeraSans-Roman-2e_4_" d="M126.543,754.64h7.715v-9.277h-7.715V754.64z"/>
					</g>
					<g>
						<path id="BitstreamVeraSans-Roman-30_2_" d="M166.118,795.07c-3.801,0-6.657-1.888-8.577-5.631
							c-1.904-3.727-2.865-9.343-2.865-16.862c0-7.471,0.96-13.086,2.865-16.829c1.92-3.727,4.777-5.615,8.577-5.615
							c3.817,0,6.689,1.888,8.602,5.615c1.921,3.743,2.873,9.359,2.873,16.829c0,7.52-0.952,13.135-2.873,16.862
							C172.808,793.182,169.935,795.07,166.118,795.07 M166.118,800.913c6.112,0,10.791-2.441,14.022-7.259
							c3.223-4.85,4.834-11.865,4.834-21.077c0-9.18-1.611-16.195-4.834-21.029c-3.231-4.834-7.91-7.259-14.022-7.259
							s-10.775,2.425-14.006,7.259c-3.231,4.834-4.85,11.849-4.85,21.029c0,9.212,1.619,16.227,4.85,21.077
							C155.344,798.471,160.007,800.913,166.118,800.913"/>
					</g>
				</g>
			</g>
		</g>
		<g id="xtick_6">
			<g id="line2d_12">
				<g>
					<g>
						<path id="m93b0483c22_5_" stroke="#000000" stroke-width="0.5" stroke-linejoin="round" d="M343.283,302.658v-2.994"/>
					</g>
				</g>
			</g>
			<g id="line2d_13">
				<g>
					<g>
						<path id="m741efc42ff_5_" stroke="#000000" stroke-width="0.5" stroke-linejoin="round" d="M343.283,44.03v2.993"/>
					</g>
				</g>
			</g>
			<g id="text_6">
				<g transform="translate(342.4396875 401.918125)scale(0.12 -0.12)">
					<g>
						<path id="BitstreamVeraSans-Roman-33_1_" d="M-15.985,774.773c3.532-0.749,6.291-2.327,8.268-4.72
							c1.986-2.376,2.987-5.339,2.987-8.838c0-5.387-1.855-9.538-5.558-12.5c-3.703-2.946-8.96-4.427-15.788-4.427
							c-2.287,0-4.631,0.228-7.064,0.684c-2.417,0.456-4.924,1.139-7.503,2.051v7.096c2.043-1.172,4.272-2.083,6.714-2.686
							c2.441-0.618,4.98-0.911,7.642-0.911c4.623,0,8.154,0.911,10.571,2.734c2.425,1.823,3.638,4.476,3.638,7.959
							c0,3.223-1.123,5.729-3.377,7.552c-2.254,1.807-5.396,2.718-9.399,2.718h-6.364v6.071h6.657c3.621,0,6.396,0.716,8.325,2.181
							c1.921,1.432,2.881,3.532,2.881,6.25c0,2.8-0.993,4.948-2.979,6.445c-1.978,1.514-4.818,2.262-8.521,2.262
							c-2.034,0-4.199-0.228-6.519-0.667c-2.311-0.439-4.858-1.107-7.634-2.035v6.576c2.808,0.781,5.428,1.367,7.878,1.758
							c2.449,0.374,4.753,0.586,6.926,0.586c5.607,0,10.042-1.286,13.297-3.841c3.263-2.539,4.891-5.973,4.891-10.303
							c0-3.027-0.854-5.583-2.588-7.666C-10.337,777.02-12.794,775.587-15.985,774.773"/>
					</g>
					<g>
						<path id="BitstreamVeraSans-Roman-2e_5_" d="M9.268,754.64h7.707v-9.277H9.268V754.64z"/>
					</g>
					<g>
						<path id="BitstreamVeraSans-Roman-35_2_" d="M33.128,799.92h28.979v-6.218H39.891V780.34c1.066,0.358,2.132,0.635,3.206,0.814
							c1.066,0.179,2.148,0.277,3.223,0.277c6.079,0,10.905-1.677,14.461-5.029c3.564-3.32,5.347-7.845,5.347-13.542
							c0-5.859-1.831-10.433-5.485-13.688c-3.654-3.255-8.805-4.883-15.462-4.883c-2.295,0-4.623,0.212-6.999,0.586
							c-2.368,0.391-4.818,0.977-7.357,1.774v7.406c2.189-1.188,4.451-2.083,6.795-2.669c2.336-0.57,4.81-0.863,7.414-0.863
							c4.215,0,7.552,1.09,10.01,3.304c2.466,2.23,3.695,5.241,3.695,9.033s-1.229,6.82-3.695,9.017
							c-2.458,2.23-5.794,3.353-10.01,3.353c-1.969,0-3.947-0.228-5.908-0.667c-1.953-0.456-3.955-1.123-5.998-2.051V799.92z"/>
					</g>
				</g>
			</g>
		</g>
		<g id="xtick_7">
			<g id="line2d_14">
				<g>
					<g>
						<path id="m93b0483c22_6_" stroke="#000000" stroke-width="0.5" stroke-linejoin="round" d="M385.042,302.658v-2.994"/>
					</g>
				</g>
			</g>
			<g id="line2d_15">
				<g>
					<g>
						<path id="m741efc42ff_6_" stroke="#000000" stroke-width="0.5" stroke-linejoin="round" d="M385.042,44.03v2.993"/>
					</g>
				</g>
			</g>
			<g id="text_7">
				<g transform="translate(397.95 401.918125)scale(0.12 -0.12)">
					<g>
						<path id="BitstreamVeraSans-Roman-34" d="M-134.479,793.491l-18.636-29.134h18.636V793.491z M-136.415,799.92h9.285v-35.563
							h7.788v-6.136h-7.788v-12.858h-7.349v12.858h-24.617v7.129L-136.415,799.92z"/>
					</g>
					<g>
						<path id="BitstreamVeraSans-Roman-2e_6_" d="M-107.151,754.64h7.715v-9.277h-7.715V754.64z"/>
					</g>
					<g>
						<path id="BitstreamVeraSans-Roman-30_3_" d="M-67.576,795.07c-3.792,0-6.649-1.888-8.569-5.631
							c-1.92-3.727-2.873-9.343-2.873-16.862c0-7.471,0.952-13.086,2.873-16.829c1.921-3.727,4.777-5.615,8.569-5.615
							c3.833,0,6.698,1.888,8.602,5.615c1.92,3.743,2.881,9.359,2.881,16.829c0,7.52-0.96,13.135-2.881,16.862
							C-60.878,793.182-63.743,795.07-67.576,795.07 M-67.576,800.913c6.12,0,10.791-2.441,14.014-7.259
							c3.231-4.85,4.85-11.865,4.85-21.077c0-9.18-1.619-16.195-4.85-21.029c-3.223-4.834-7.894-7.259-14.014-7.259
							c-6.112,0-10.783,2.425-14.005,7.259c-3.231,4.834-4.85,11.849-4.85,21.029c0,9.212,1.619,16.227,4.85,21.077
							C-78.359,798.471-73.688,800.913-67.576,800.913"/>
					</g>
				</g>
			</g>
		</g>
		<g id="xtick_8">
			<g id="line2d_16">
				<g>
					<g>
						<path id="m93b0483c22_7_" stroke="#000000" stroke-width="0.5" stroke-linejoin="round" d="M426.799,302.658v-2.994"/>
					</g>
				</g>
			</g>
			<g id="line2d_17">
				<g>
					<g>
						<path id="m741efc42ff_7_" stroke="#000000" stroke-width="0.5" stroke-linejoin="round" d="M426.799,44.03v2.993"/>
					</g>
				</g>
			</g>
			<g id="text_8">
				<g transform="translate(453.875625 401.918125)scale(0.12 -0.12)">
					<g>
						<path id="BitstreamVeraSans-Roman-34_1_" d="M-251.754,793.491l-18.644-29.134h18.644V793.491z M-253.699,799.92h9.285
							v-35.563h7.788v-6.136h-7.788v-12.858h-7.34v12.858h-24.626v7.129L-253.699,799.92z"/>
					</g>
					<g>
						<path id="BitstreamVeraSans-Roman-2e_7_" d="M-224.434,754.64h7.715v-9.277h-7.715V754.64z"/>
					</g>
					<g>
						<path id="BitstreamVeraSans-Roman-35_3_" d="M-200.566,799.92h28.979v-6.218h-22.217V780.34
							c1.058,0.358,2.132,0.635,3.198,0.814c1.074,0.179,2.148,0.277,3.231,0.277c6.087,0,10.913-1.677,14.469-5.029
							c3.556-3.32,5.339-7.845,5.339-13.542c0-5.859-1.831-10.433-5.485-13.688c-3.654-3.255-8.805-4.883-15.454-4.883
							c-2.287,0-4.63,0.212-7.007,0.586c-2.368,0.391-4.826,0.977-7.357,1.774v7.406c2.197-1.188,4.46-2.083,6.795-2.669
							c2.344-0.57,4.81-0.863,7.414-0.863c4.216,0,7.552,1.09,10.01,3.304c2.466,2.23,3.695,5.241,3.695,9.033
							s-1.229,6.82-3.695,9.017c-2.458,2.23-5.794,3.353-10.01,3.353c-1.978,0-3.939-0.228-5.908-0.667
							c-1.953-0.456-3.955-1.123-5.998-2.051V799.92z"/>
					</g>
				</g>
			</g>
		</g>
		<g id="xtick_9">
			<g id="line2d_18">
				<g>
					<g>
						<path id="m93b0483c22_8_" stroke="#000000" stroke-width="0.5" stroke-linejoin="round" d="M468.557,302.658v-2.994"/>
					</g>
				</g>
			</g>
			<g id="line2d_19">
				<g>
					<g>
						<path id="m741efc42ff_8_" stroke="#000000" stroke-width="0.5" stroke-linejoin="round" d="M468.557,44.03v2.993"/>
					</g>
				</g>
			</g>
			<g id="text_9">
				<g transform="translate(509.7196875 401.918125)scale(0.12 -0.12)">
					<g>
						<path id="BitstreamVeraSans-Roman-35_4_" d="M-389.077,799.92h28.979v-6.218h-22.217V780.34
							c1.066,0.358,2.132,0.635,3.207,0.814c1.066,0.179,2.148,0.277,3.214,0.277c6.095,0,10.921-1.677,14.469-5.029
							c3.564-3.32,5.347-7.845,5.347-13.542c0-5.859-1.831-10.433-5.485-13.688c-3.654-3.255-8.805-4.883-15.454-4.883
							c-2.295,0-4.622,0.212-7.007,0.586c-2.368,0.391-4.826,0.977-7.357,1.774v7.406c2.197-1.188,4.451-2.083,6.795-2.669
							c2.336-0.57,4.81-0.863,7.414-0.863c4.216,0,7.56,1.09,10.018,3.304c2.45,2.23,3.687,5.241,3.687,9.033
							s-1.237,6.82-3.687,9.017c-2.458,2.23-5.802,3.353-10.018,3.353c-1.978,0-3.947-0.228-5.9-0.667
							c-1.969-0.456-3.963-1.123-6.006-2.051V799.92z"/>
					</g>
					<g>
						<path id="BitstreamVeraSans-Roman-2e_8_" d="M-341.543,754.64h7.723v-9.277h-7.723V754.64z"/>
					</g>
					<g>
						<path id="BitstreamVeraSans-Roman-30_4_" d="M-301.968,795.07c-3.8,0-6.657-1.888-8.569-5.631
							c-1.912-3.727-2.873-9.343-2.873-16.862c0-7.471,0.96-13.086,2.873-16.829c1.913-3.727,4.769-5.615,8.569-5.615
							c3.825,0,6.698,1.888,8.602,5.615c1.913,3.743,2.881,9.359,2.881,16.829c0,7.52-0.968,13.135-2.881,16.862
							C-295.271,793.182-298.143,795.07-301.968,795.07 M-301.968,800.913c6.112,0,10.791-2.441,14.014-7.259
							c3.23-4.85,4.842-11.865,4.842-21.077c0-9.18-1.611-16.195-4.842-21.029c-3.223-4.834-7.902-7.259-14.014-7.259
							s-10.783,2.425-14.014,7.259c-3.223,4.834-4.834,11.849-4.834,21.029c0,9.212,1.611,16.227,4.834,21.077
							C-312.751,798.471-308.08,800.913-301.968,800.913"/>
					</g>
				</g>
			</g>
		</g>
	</g>
	<g id="matplotlib.axis_2">
		<g id="ytick_1">
			<g id="line2d_20">
				<g>
					<g>
						<path id="m728421d6d4" stroke="#000000" stroke-width="0.5" stroke-linejoin="round" d="M134.495,302.658h2.994"/>
					</g>
				</g>
			</g>
			<g id="line2d_21">
				<g>
					<g>
						<path id="mcb0005524f" stroke="#000000" stroke-width="0.5" stroke-linejoin="round" d="M468.557,302.658h-2.993"/>
					</g>
				</g>
			</g>
			<g id="text_10">
				<g transform="translate(61.953125 392.11125)scale(0.12 -0.12)">
					<g>
						<path id="BitstreamVeraSans-Roman-30_5_" d="M565.647,774.495c-3.796,0-6.653-1.872-8.569-5.632
							c-1.908-3.711-2.869-9.342-2.869-16.846c0-7.487,0.96-13.086,2.869-16.829c1.917-3.743,4.773-5.615,8.569-5.615
							c3.829,0,6.698,1.872,8.606,5.615c1.921,3.743,2.873,9.343,2.873,16.829c0,7.503-0.952,13.135-2.873,16.846
							C572.344,772.623,569.476,774.495,565.647,774.495 M565.647,780.338c6.12,0,10.791-2.425,14.018-7.259
							c3.231-4.834,4.842-11.849,4.842-21.061c0-9.18-1.611-16.195-4.842-21.045c-3.227-4.818-7.898-7.243-14.018-7.243
							c-6.108,0-10.783,2.425-14.01,7.243c-3.227,4.85-4.842,11.865-4.842,21.045c0,9.212,1.615,16.227,4.842,21.061
							C554.864,777.913,559.539,780.338,565.647,780.338"/>
					</g>
				</g>
			</g>
		</g>
		<g id="ytick_2">
			<g id="line2d_22">
				<g>
					<g>
						<path id="m728421d6d4_1_" stroke="#000000" stroke-width="0.5" stroke-linejoin="round" d="M134.495,250.932h2.994"/>
					</g>
				</g>
			</g>
			<g id="line2d_23">
				<g>
					<g>
						<path id="mcb0005524f_1_" stroke="#000000" stroke-width="0.5" stroke-linejoin="round" d="M468.557,250.932h-2.993"/>
					</g>
				</g>
			</g>
			<g id="text_11">
				<g transform="translate(46.818125 322.99125)scale(0.12 -0.12)">
					<g>
						<path id="BitstreamVeraSans-Roman-35_5_" d="M581.685,634.4h28.971v-6.218h-22.217V614.82c1.07,0.358,2.136,0.635,3.206,0.814
							c1.074,0.195,2.148,0.26,3.227,0.26c6.087,0,10.909-1.66,14.465-4.997c3.56-3.337,5.343-7.845,5.343-13.558
							c0-5.859-1.827-10.433-5.485-13.688c-3.654-3.255-8.805-4.866-15.458-4.866c-2.291,0-4.626,0.179-7.003,0.57
							c-2.368,0.407-4.826,0.977-7.357,1.758v7.438c2.193-1.205,4.456-2.083,6.795-2.669c2.34-0.586,4.81-0.879,7.414-0.879
							c4.22,0,7.552,1.107,10.01,3.32c2.462,2.214,3.695,5.225,3.695,9.017c0,3.809-1.233,6.803-3.695,9.017
							c-2.458,2.214-5.79,3.32-10.01,3.32c-1.974,0-3.943-0.195-5.904-0.635c-1.961-0.439-3.959-1.123-5.998-2.051V634.4z"/>
					</g>
					<g>
						<path id="BitstreamVeraSans-Roman-30_6_" d="M644.998,629.533c-3.796,0-6.653-1.872-8.573-5.599
							c-1.908-3.743-2.86-9.359-2.86-16.878c0-7.471,0.952-13.07,2.86-16.813c1.921-3.743,4.777-5.615,8.573-5.615
							c3.829,0,6.698,1.872,8.606,5.615c1.917,3.743,2.877,9.343,2.877,16.813c0,7.52-0.96,13.135-2.877,16.878
							C651.696,627.661,648.827,629.533,644.998,629.533 M644.998,635.376c6.12,0,10.791-2.409,14.018-7.259
							c3.231-4.818,4.842-11.849,4.842-21.061c0-9.18-1.611-16.178-4.842-21.029c-3.227-4.834-7.898-7.243-14.018-7.243
							c-6.112,0-10.779,2.409-14.006,7.243c-3.231,4.85-4.846,11.849-4.846,21.029c0,9.212,1.615,16.243,4.846,21.061
							C634.22,632.967,638.887,635.376,644.998,635.376"/>
					</g>
					<g>
						<path id="BitstreamVeraSans-Roman-30_7_" d="M692.61,629.533c-3.796,0-6.653-1.872-8.573-5.599
							c-1.904-3.743-2.861-9.359-2.861-16.878c0-7.471,0.956-13.07,2.861-16.813c1.921-3.743,4.777-5.615,8.573-5.615
							c3.829,0,6.698,1.872,8.602,5.615c1.925,3.743,2.881,9.343,2.881,16.813c0,7.52-0.956,13.135-2.881,16.878
							C699.307,627.661,696.439,629.533,692.61,629.533 M692.61,635.376c6.124,0,10.791-2.409,14.022-7.259
							c3.227-4.818,4.838-11.849,4.838-21.061c0-9.18-1.611-16.178-4.838-21.029c-3.231-4.834-7.898-7.243-14.022-7.243
							c-6.112,0-10.779,2.409-14.005,7.243c-3.231,4.85-4.842,11.849-4.842,21.029c0,9.212,1.611,16.243,4.842,21.061
							C681.831,632.967,686.498,635.376,692.61,635.376"/>
					</g>
				</g>
			</g>
		</g>
		<g id="ytick_3">
			<g id="line2d_24">
				<g>
					<g>
						<path id="m728421d6d4_2_" stroke="#000000" stroke-width="0.5" stroke-linejoin="round" d="M134.495,199.207h2.994"/>
					</g>
				</g>
			</g>
			<g id="line2d_25">
				<g>
					<g>
						<path id="mcb0005524f_2_" stroke="#000000" stroke-width="0.5" stroke-linejoin="round" d="M468.557,199.207h-2.993"/>
					</g>
				</g>
			</g>
			<g id="text_12">
				<g transform="translate(39.575 253.87125)scale(0.12 -0.12)">
					<g>
						<path id="BitstreamVeraSans-Roman-31_2_" d="M598.078,441.102h12.057v41.618l-13.123-2.629v6.722l13.049,2.628h7.381v-48.34
							h12.052v-6.217h-31.417V441.102z"/>
					</g>
					<g>
						<path id="BitstreamVeraSans-Roman-30_8_" d="M660.188,484.584c-3.8,0-6.653-1.88-8.573-5.615
							c-1.908-3.735-2.86-9.351-2.86-16.854c0-7.479,0.952-13.086,2.86-16.821c1.921-3.752,4.773-5.615,8.573-5.615
							c3.825,0,6.694,1.864,8.602,5.615c1.925,3.735,2.881,9.343,2.881,16.821c0,7.503-0.956,13.118-2.881,16.854
							C666.881,482.704,664.013,484.584,660.188,484.584 M660.188,490.435c6.12,0,10.791-2.433,14.018-7.259
							c3.227-4.834,4.842-11.849,4.842-21.061c0-9.188-1.615-16.195-4.842-21.037c-3.227-4.834-7.898-7.243-14.018-7.243
							c-6.112,0-10.779,2.409-14.01,7.243c-3.227,4.842-4.838,11.849-4.838,21.037c0,9.212,1.611,16.227,4.838,21.061
							C649.409,488.002,654.076,490.435,660.188,490.435"/>
					</g>
					<g>
						<path id="BitstreamVeraSans-Roman-30_9_" d="M707.799,484.584c-3.796,0-6.653-1.88-8.569-5.615
							c-1.912-3.735-2.865-9.351-2.865-16.854c0-7.479,0.952-13.086,2.865-16.821c1.917-3.752,4.773-5.615,8.569-5.615
							c3.829,0,6.698,1.864,8.606,5.615c1.917,3.735,2.877,9.343,2.877,16.821c0,7.503-0.96,13.118-2.877,16.854
							C714.497,482.704,711.628,484.584,707.799,484.584 M707.799,490.435c6.12,0,10.791-2.433,14.018-7.259
							c3.231-4.834,4.846-11.849,4.846-21.061c0-9.188-1.615-16.195-4.846-21.037c-3.227-4.834-7.898-7.243-14.018-7.243
							c-6.112,0-10.779,2.409-14.006,7.243c-3.231,4.842-4.842,11.849-4.842,21.037c0,9.212,1.611,16.227,4.842,21.061
							C697.02,488.002,701.688,490.435,707.799,490.435"/>
					</g>
					<g>
						<path id="BitstreamVeraSans-Roman-30_10_" d="M755.411,484.584c-3.796,0-6.653-1.88-8.573-5.615
							c-1.904-3.735-2.861-9.351-2.861-16.854c0-7.479,0.956-13.086,2.861-16.821c1.921-3.752,4.777-5.615,8.573-5.615
							c3.829,0,6.698,1.864,8.606,5.615c1.921,3.735,2.877,9.343,2.877,16.821c0,7.503-0.956,13.118-2.877,16.854
							C762.108,482.704,759.24,484.584,755.411,484.584 M755.411,490.435c6.124,0,10.791-2.433,14.022-7.259
							c3.227-4.834,4.838-11.849,4.838-21.061c0-9.188-1.611-16.195-4.838-21.037c-3.231-4.834-7.898-7.243-14.022-7.243
							c-6.108,0-10.779,2.409-14.005,7.243c-3.227,4.842-4.842,11.849-4.842,21.037c0,9.212,1.615,16.227,4.842,21.061
							C744.632,488.002,749.303,490.435,755.411,490.435"/>
					</g>
				</g>
			</g>
		</g>
		<g id="ytick_4">
			<g id="line2d_26">
				<g>
					<g>
						<path id="m728421d6d4_3_" stroke="#000000" stroke-width="0.5" stroke-linejoin="round" d="M134.495,147.481h2.994"/>
					</g>
				</g>
			</g>
			<g id="line2d_27">
				<g>
					<g>
						<path id="mcb0005524f_3_" stroke="#000000" stroke-width="0.5" stroke-linejoin="round" d="M468.557,147.481h-2.993"/>
					</g>
				</g>
			</g>
			<g id="text_13">
				<g transform="translate(39.575 184.75125)scale(0.12 -0.12)">
					<g>
						<path id="BitstreamVeraSans-Roman-31_3_" d="M598.078,296.149h12.057v41.626l-13.123-2.629v6.718l13.049,2.633h7.381v-48.348
							h12.052v-6.209h-31.417V296.149z"/>
					</g>
					<g>
						<path id="BitstreamVeraSans-Roman-35_6_" d="M644.485,344.497h28.975v-6.221h-22.217v-13.367
							c1.066,0.37,2.132,0.643,3.202,0.822c1.074,0.179,2.148,0.269,3.231,0.269c6.083,0,10.905-1.668,14.461-5.005
							c3.564-3.337,5.347-7.857,5.347-13.554c0-5.872-1.831-10.433-5.485-13.692c-3.658-3.247-8.809-4.875-15.462-4.875
							c-2.291,0-4.626,0.195-7.003,0.586c-2.368,0.391-4.822,0.972-7.353,1.754v7.422c2.189-1.192,4.452-2.079,6.791-2.665
							c2.344-0.582,4.81-0.875,7.414-0.875c4.22,0,7.552,1.107,10.01,3.324c2.466,2.205,3.695,5.22,3.695,9.021
							s-1.229,6.807-3.695,9.017c-2.458,2.222-5.79,3.333-10.01,3.333c-1.974,0-3.943-0.22-5.904-0.655
							c-1.961-0.435-3.955-1.115-5.998-2.047V344.497z"/>
					</g>
					<g>
						<path id="BitstreamVeraSans-Roman-30_11_" d="M707.799,339.635c-3.796,0-6.653-1.872-8.569-5.615
							c-1.912-3.731-2.865-9.355-2.865-16.862c0-7.475,0.952-13.082,2.865-16.825c1.917-3.743,4.773-5.611,8.569-5.611
							c3.829,0,6.698,1.868,8.606,5.611c1.917,3.744,2.877,9.351,2.877,16.825c0,7.507-0.96,13.131-2.877,16.862
							C714.497,337.763,711.628,339.635,707.799,339.635 M707.799,345.482c6.12,0,10.791-2.421,14.018-7.263
							c3.231-4.83,4.846-11.853,4.846-21.061c0-9.184-1.615-16.191-4.846-21.033c-3.227-4.834-7.898-7.251-14.018-7.251
							c-6.112,0-10.779,2.417-14.006,7.251c-3.231,4.842-4.842,11.849-4.842,21.033c0,9.208,1.611,16.231,4.842,21.061
							C697.021,343.061,701.688,345.482,707.799,345.482"/>
					</g>
					<g>
						<path id="BitstreamVeraSans-Roman-30_12_" d="M755.411,339.635c-3.796,0-6.653-1.872-8.573-5.615
							c-1.904-3.731-2.861-9.355-2.861-16.862c0-7.475,0.956-13.082,2.861-16.825c1.921-3.743,4.777-5.611,8.573-5.611
							c3.829,0,6.698,1.868,8.606,5.611c1.921,3.744,2.877,9.351,2.877,16.825c0,7.507-0.956,13.131-2.877,16.862
							C762.108,337.763,759.24,339.635,755.411,339.635 M755.411,345.482c6.124,0,10.791-2.421,14.022-7.263
							c3.227-4.83,4.838-11.853,4.838-21.061c0-9.184-1.611-16.191-4.838-21.033c-3.231-4.834-7.898-7.251-14.022-7.251
							c-6.108,0-10.779,2.417-14.005,7.251c-3.227,4.842-4.842,11.849-4.842,21.033c0,9.208,1.615,16.231,4.842,21.061
							C744.632,343.061,749.303,345.482,755.411,345.482"/>
					</g>
				</g>
			</g>
		</g>
		<g id="ytick_5">
			<g id="line2d_28">
				<g>
					<g>
						<path id="m728421d6d4_4_" stroke="#000000" stroke-width="0.5" stroke-linejoin="round" d="M134.495,95.755h2.994"/>
					</g>
				</g>
			</g>
			<g id="line2d_29">
				<g>
					<g>
						<path id="mcb0005524f_4_" stroke="#000000" stroke-width="0.5" stroke-linejoin="round" d="M468.557,95.755h-2.993"/>
					</g>
				</g>
			</g>
			<g id="text_14">
				<g transform="translate(39.13625 115.63125)scale(0.12 -0.12)">
					<g>
						<path id="BitstreamVeraSans-Roman-32_2_" d="M604.074,151.195h25.757v-6.209h-34.635v6.209
							c2.799,2.901,6.616,6.787,11.446,11.67c4.842,4.887,7.886,8.041,9.123,9.457c2.36,2.653,4.012,4.895,4.948,6.738
							c0.944,1.839,1.412,3.646,1.412,5.424c0,2.901-1.017,5.261-3.052,7.088c-2.035,1.827-4.683,2.747-7.951,2.747
							c-2.311,0-4.761-0.403-7.332-1.205c-2.563-0.806-5.306-2.026-8.228-3.662v7.463c2.966,1.192,5.741,2.091,8.321,2.698
							c2.588,0.606,4.956,0.911,7.096,0.911c5.656,0,10.16-1.412,13.521-4.244c3.357-2.816,5.037-6.592,5.037-11.316
							c0-2.246-0.423-4.375-1.266-6.384c-0.834-2.002-2.36-4.37-4.578-7.101c-0.61-0.704-2.551-2.75-5.815-6.128
							C614.625,161.979,610.019,157.258,604.074,151.195"/>
					</g>
					<g>
						<path id="BitstreamVeraSans-Roman-30_13_" d="M661.11,194.681c-3.796,0-6.653-1.872-8.573-5.615
							c-1.908-3.731-2.865-9.351-2.865-16.858c0-7.475,0.956-13.086,2.865-16.83c1.921-3.744,4.777-5.607,8.573-5.607
							c3.825,0,6.694,1.863,8.606,5.607c1.917,3.744,2.873,9.354,2.873,16.83c0,7.507-0.956,13.126-2.873,16.858
							C667.803,192.809,664.935,194.681,661.11,194.681 M661.11,200.524c6.116,0,10.791-2.417,14.018-7.259
							c3.227-4.83,4.842-11.853,4.842-21.057c0-9.184-1.615-16.199-4.842-21.033c-3.227-4.838-7.902-7.255-14.018-7.255
							c-6.112,0-10.783,2.417-14.01,7.255c-3.231,4.834-4.842,11.849-4.842,21.033c0,9.204,1.611,16.227,4.842,21.057
							C650.327,198.107,654.998,200.524,661.11,200.524"/>
					</g>
					<g>
						<path id="BitstreamVeraSans-Roman-30_14_" d="M708.721,194.681c-3.796,0-6.653-1.872-8.569-5.615
							c-1.912-3.731-2.869-9.351-2.869-16.858c0-7.475,0.956-13.086,2.869-16.83c1.917-3.744,4.773-5.607,8.569-5.607
							c3.829,0,6.698,1.863,8.606,5.607c1.917,3.744,2.873,9.354,2.873,16.83c0,7.507-0.956,13.126-2.873,16.858
							C715.419,192.809,712.55,194.681,708.721,194.681 M708.721,200.524c6.116,0,10.791-2.417,14.018-7.259
							c3.231-4.83,4.842-11.853,4.842-21.057c0-9.184-1.611-16.199-4.842-21.033c-3.227-4.838-7.902-7.255-14.018-7.255
							c-6.112,0-10.783,2.417-14.01,7.255c-3.227,4.834-4.838,11.849-4.838,21.033c0,9.204,1.611,16.227,4.838,21.057
							C697.938,198.107,702.61,200.524,708.721,200.524"/>
					</g>
					<g>
						<path id="BitstreamVeraSans-Roman-30_15_" d="M756.333,194.681c-3.796,0-6.653-1.872-8.573-5.615
							c-1.908-3.731-2.865-9.351-2.865-16.858c0-7.475,0.956-13.086,2.865-16.83c1.921-3.744,4.777-5.607,8.573-5.607
							c3.829,0,6.693,1.863,8.606,5.607c1.921,3.744,2.877,9.354,2.877,16.83c0,7.507-0.956,13.126-2.877,16.858
							C763.026,192.809,760.162,194.681,756.333,194.681 M756.333,200.524c6.12,0,10.791-2.417,14.022-7.259
							c3.227-4.83,4.838-11.853,4.838-21.057c0-9.184-1.611-16.199-4.838-21.033c-3.231-4.838-7.902-7.255-14.022-7.255
							c-6.112,0-10.779,2.417-14.01,7.255c-3.231,4.834-4.838,11.849-4.838,21.033c0,9.204,1.607,16.227,4.838,21.057
							C745.554,198.107,750.221,200.524,756.333,200.524"/>
					</g>
				</g>
			</g>
		</g>
		<g id="ytick_6">
			<g id="line2d_30">
				<g>
					<g>
						<path id="m728421d6d4_5_" stroke="#000000" stroke-width="0.5" stroke-linejoin="round" d="M134.495,44.03h2.994"/>
					</g>
				</g>
			</g>
			<g id="line2d_31">
				<g>
					<g>
						<path id="mcb0005524f_5_" stroke="#000000" stroke-width="0.5" stroke-linejoin="round" d="M468.557,44.03h-2.993"/>
					</g>
				</g>
			</g>
			<g id="text_15">
				<g transform="translate(39.13625 46.51125)scale(0.12 -0.12)">
					<g>
						<path id="BitstreamVeraSans-Roman-32_3_" d="M604.074,6.243h25.757V0.033h-34.635v6.209c2.799,2.901,6.616,6.787,11.446,11.67
							c4.842,4.891,7.886,8.04,9.123,9.46c2.36,2.649,4.012,4.895,4.948,6.734c0.944,1.839,1.412,3.65,1.412,5.424
							c0,2.901-1.017,5.261-3.052,7.088c-2.035,1.831-4.683,2.747-7.951,2.747c-2.311,0-4.761-0.403-7.332-1.204
							c-2.563-0.802-5.306-2.022-8.228-3.662v7.458c2.966,1.196,5.741,2.1,8.321,2.706c2.588,0.606,4.956,0.912,7.096,0.912
							c5.656,0,10.16-1.416,13.521-4.248c3.357-2.82,5.037-6.592,5.037-11.316c0-2.246-0.423-4.374-1.266-6.384
							c-0.834-2.006-2.36-4.37-4.578-7.101c-0.61-0.704-2.551-2.747-5.815-6.128C614.625,17.029,610.019,12.31,604.074,6.243"/>
					</g>
					<g>
						<path id="BitstreamVeraSans-Roman-35_7_" d="M645.403,54.59h28.975v-6.217h-22.217V35.002c1.07,0.37,2.136,0.643,3.202,0.822
							c1.074,0.179,2.156,0.269,3.231,0.269c6.087,0,10.909-1.664,14.461-5.001c3.564-3.34,5.347-7.857,5.347-13.554
							c0-5.872-1.831-10.433-5.485-13.692c-3.658-3.251-8.809-4.875-15.458-4.875c-2.291,0-4.626,0.195-7.003,0.586
							c-2.368,0.387-4.822,0.973-7.357,1.754v7.422c2.193-1.196,4.456-2.083,6.795-2.666c2.34-0.586,4.81-0.879,7.414-0.879
							c4.215,0,7.552,1.107,10.01,3.325c2.462,2.209,3.695,5.22,3.695,9.025c0,3.796-1.233,6.803-3.695,9.013
							c-2.458,2.226-5.794,3.333-10.01,3.333c-1.974,0-3.943-0.215-5.908-0.651c-1.953-0.439-3.955-1.119-5.998-2.047V54.59z"/>
					</g>
					<g>
						<path id="BitstreamVeraSans-Roman-30_16_" d="M708.721,49.728c-3.796,0-6.653-1.868-8.569-5.611
							c-1.912-3.731-2.869-9.354-2.869-16.866c0-7.471,0.956-13.078,2.869-16.821c1.917-3.744,4.773-5.615,8.569-5.615
							c3.829,0,6.698,1.872,8.606,5.615c1.917,3.743,2.873,9.351,2.873,16.821c0,7.511-0.956,13.135-2.873,16.866
							C715.419,47.86,712.55,49.728,708.721,49.728 M708.721,55.575c6.116,0,10.791-2.421,14.018-7.263
							c3.231-4.83,4.842-11.849,4.842-21.061c0-9.18-1.611-16.191-4.842-21.033c-3.227-4.83-7.902-7.247-14.018-7.247
							c-6.112,0-10.783,2.417-14.01,7.247c-3.227,4.842-4.838,11.853-4.838,21.033c0,9.212,1.611,16.231,4.838,21.061
							C697.938,53.154,702.61,55.575,708.721,55.575"/>
					</g>
					<g>
						<path id="BitstreamVeraSans-Roman-30_17_" d="M756.333,49.728c-3.796,0-6.653-1.868-8.573-5.611
							c-1.908-3.731-2.865-9.354-2.865-16.866c0-7.471,0.956-13.078,2.865-16.821c1.921-3.744,4.777-5.615,8.573-5.615
							c3.829,0,6.693,1.872,8.606,5.615c1.921,3.743,2.877,9.351,2.877,16.821c0,7.511-0.956,13.135-2.877,16.866
							C763.026,47.86,760.162,49.728,756.333,49.728 M756.333,55.575c6.12,0,10.791-2.421,14.022-7.263
							c3.227-4.83,4.838-11.849,4.838-21.061c0-9.18-1.611-16.191-4.838-21.033c-3.231-4.83-7.902-7.247-14.022-7.247
							c-6.112,0-10.779,2.417-14.01,7.247c-3.231,4.842-4.838,11.853-4.838,21.033c0,9.212,1.607,16.231,4.838,21.061
							C745.554,53.154,750.221,55.575,756.333,55.575"/>
					</g>
				</g>
			</g>
		</g>
	</g>
</g>
<text transform="matrix(1 0 0 1 179.4938 35.1664)" font-family="'MyriadPro-Regular'" font-size="14">Wiring Cost vs. Embedded Dimensionality</text>
<text transform="matrix(1 0 0 1 222.9196 335.1659)" font-family="'MyriadPro-Regular'" font-size="14">Embedded Dimensionality</text>
<text transform="matrix(4.489659e-11 -1 1 4.489659e-11 100.1608 207.3134)" font-family="'MyriadPro-Regular'" font-size="14">Wiring Cost</text>
</svg>
